<svg
  xmlns="http://www.w3.org/2000/svg"
  data-name="Layer 1"
  viewBox="0 0 512 512"
>
  <path
    d="M476 237v-1l1-1a14 14 0 0 0 0-1v-1l1-1c0-1 0 0 0 0v-3a16 16 0 0 0 0-3l-1-1v-1l-1-1a2 2 0 0 1 0-1v-1l-1-1-1-1-1-1-1-1a16 16 0 0 0-3-2L57 36a15 15 0 0 0-16 3 15 15 0 0 0-6 18l181 411 1 1v1l1 1v1l1 1 1 1h2v1h1v1h3l1 1h4c1 0 0 0 0 0h2l1-1h2a9 9 0 0 0 1-1h1l1-1 1-1 1-1 1-1v-1h1a15 15 0 0 0 2-5v-2l17-202 202-17h3l1-1a4 4 0 0 0 1 0h1v-1a12 12 0 0 0 1 0l1-1h1v-1h1a16 16 0 0 0 1-2l1-1Zm-229-5a15 15 0 0 0-14 14l-13 156L77 78l325 141Z"
  />
</svg>
